<?xml version="1.0" encoding="UTF-8" standalone="no"?>
<svg
   xmlns:dc="http://purl.org/dc/elements/1.1/"
   xmlns:cc="http://creativecommons.org/ns#"
   xmlns:rdf="http://www.w3.org/1999/02/22-rdf-syntax-ns#"
   xmlns:svg="http://www.w3.org/2000/svg"
   xmlns="http://www.w3.org/2000/svg"
   id="svg8"
   version="1.1"
   viewBox="0 0 6.3499999 6.3499992"
   height="23.999996"
   width="24">
  <defs
     id="defs2" />
  <metadata
     id="metadata5">
    <rdf:RDF>
      <cc:Work
         rdf:about="">
        <dc:format>image/svg+xml</dc:format>
        <dc:type
           rdf:resource="http://purl.org/dc/dcmitype/StillImage" />
        <dc:title></dc:title>
      </cc:Work>
    </rdf:RDF>
  </metadata>
  <g
     transform="translate(128.7174,-355.20435)"
     style="display:inline"
     id="layer1">
    <rect
       y="356.34537"
       x="-127.64253"
       height="3.8978794"
       width="4.3703494"
       id="rect930"
       style="display:inline;fill:#ffffff;fill-opacity:1;fill-rule:nonzero;stroke:none;stroke-width:0.21166667;stroke-linecap:square;stroke-linejoin:round;stroke-miterlimit:4;stroke-dasharray:none;stroke-opacity:1"
       transform="translate(-1.6666669e-7,7.9166667e-6)" />
  </g>
  <g
     transform="translate(128.7174,-355.20435)"
     style="display:inline"
     id="layer2">
    <g
       transform="matrix(0.02357669,0,0,0.02357669,-121.80814,352.45037)"
       id="g920">
      <path
         id="path928"
         d="m -171.41977,385.86586 c -34.07622,-1.32334 -65.75286,-7.93589 -86.14509,-17.9829 -12.7683,-6.2908 -19.92875,-13.06491 -22.3644,-21.15773 l -0.59723,-1.98438 0.17437,-93.50934 c 0.15427,-82.73439 0.22105,-93.6895 0.57952,-95.07289 1.50558,-5.81023 5.98896,-11.12638 13.7413,-16.29371 21.46727,-14.30902 62.87157,-23.05554 109.1404,-23.05554 46.25793,0 87.67818,8.74989 109.140394,23.05554 7.776483,5.18342 12.231031,10.46539 13.7413,16.29371 0.358473,1.38339 0.425251,12.3385 0.579522,95.07289 l 0.174363,93.50934 -0.597226,1.98438 c -2.435651,8.09282 -9.596104,14.86693 -22.364398,21.15773 -26.359308,12.98693 -69.687995,19.75045 -115.202825,17.9829 z m 40.75047,-92.3449 c 14.31848,-13.54611 26.50985,-25.09989 27.09194,-25.67508 l 1.05833,-1.0458 -5.42396,-5.27543 c -2.98317,-2.90149 -5.58097,-5.27801 -5.77287,-5.28118 -0.1919,-0.003 -2.21597,1.82095 -4.49792,4.05356 -8.93707,8.74387 -30.27171,28.74903 -30.65959,28.74903 -0.3693,0 -0.40023,-5.1873 -0.31119,-52.18906 0.0544,-28.70399 0.003,-52.33789 -0.11519,-52.51979 -0.30967,-0.47847 -14.87264,-0.47847 -15.18231,0 -0.11773,0.1819 -0.16913,23.8158 -0.11422,52.51979 0.09,47.05456 0.0594,52.18906 -0.31119,52.18906 -0.38863,0 -21.7131,-19.995 -30.66056,-28.74903 -2.28195,-2.23261 -4.30601,-4.05672 -4.49792,-4.05356 -0.1919,0.003 -2.78969,2.37969 -5.77287,5.28118 l -5.42396,5.27543 1.05833,1.0458 c 3.30675,3.26759 53.15723,50.30435 53.31355,50.30435 0.10339,0 11.90311,-11.08318 26.2216,-24.62927 z"
         style="fill:#90b9e0;stroke-width:0.26458332" />
      <path
         id="path926"
         d="m -170.25236,385.72455 c -23.53989,-1.1442 -42.3517,-3.69806 -59.26667,-8.04598 -28.28752,-7.27122 -46.0761,-18.03874 -50.04398,-30.29189 l -0.68543,-2.11666 0.1616,-90.47273 c 0.10734,-60.09688 0.25095,-90.56208 0.42773,-90.73885 0.17844,-0.17845 0.26612,-0.11222 0.26612,0.201 0,0.73014 1.66785,4.15845 2.92914,6.02095 3.16926,4.67992 10.14498,10.06342 18.41605,14.21255 17.1989,8.62772 43.74964,14.97629 72.5819,17.35514 6.77442,0.55894 13.80291,0.94381 17.23557,0.94381 2.08066,0 2.91794,0.0926 2.99146,0.33073 0.20929,0.678 0.38018,85.65886 0.17225,85.65886 -0.32464,0 -27.30638,-25.52927 -28.0722,-26.56103 -0.95452,-1.28599 -6.52543,-6.51322 -6.93232,-6.50466 -0.34235,0.007 -2.24529,1.82029 -8.28122,7.89018 l -3.175,3.19287 1.45521,1.44015 c 3.82527,3.78569 52.99407,50.17582 53.18125,50.17582 0.18717,0 49.35597,-46.39013 53.18125,-50.17582 l 1.4552,-1.44015 -3.175,-3.19287 c -6.03592,-6.06989 -7.93886,-7.88297 -8.28122,-7.89018 -0.40689,-0.009 -5.9778,5.21867 -6.93232,6.50466 -0.76581,1.03176 -27.74756,26.56103 -28.0722,26.56103 -0.20793,0 -0.037,-84.98086 0.17225,-85.65886 0.0735,-0.23816 0.91081,-0.33073 2.99146,-0.33073 3.43266,0 10.46116,-0.38487 17.23558,-0.94381 28.832251,-2.37885 55.382993,-8.72742 72.581896,-17.35514 8.271063,-4.14913 15.246792,-9.53263 18.416045,-14.21255 1.261296,-1.8625 2.929139,-5.29081 2.929139,-6.02095 0,-0.31307 0.08772,-0.37941 0.265996,-0.20113 0.176551,0.17655 0.324752,30.64714 0.440719,90.61321 l 0.174723,90.34721 -0.597887,1.9684 c -2.319493,7.63643 -9.397211,14.339 -21.586338,20.44216 -19.098114,9.56252 -45.813563,15.53195 -80.297213,17.94201 -3.89213,0.27202 -30.32749,0.54457 -34.26354,0.35325 z"
         style="fill:#8596c9;stroke-width:0.26458332" />
      <path
         id="path924"
         d="m -174.75028,385.3301 c -52.41862,-2.77894 -93.94767,-16.80664 -103.29077,-34.88957 -0.56707,-1.09753 -1.29285,-2.94801 -1.61284,-4.11218 l -0.5818,-2.11667 0.19104,-59.4651 c 0.10507,-32.70581 0.27003,-59.4651 0.36656,-59.4651 0.0965,0 0.40067,0.66238 0.67586,1.47196 1.21163,3.56457 5.46159,8.70276 10.03479,12.13206 12.05826,9.04208 32.2999,16.32039 57.5212,20.68296 3.01132,0.52088 5.53466,1.01037 5.60742,1.08777 0.0728,0.0774 -1.22781,1.43112 -2.89015,3.00827 -2.54118,2.41094 -2.98354,2.9465 -2.77813,3.3634 0.42037,0.85316 54.13212,51.5192 54.6162,51.5192 0.48407,0 54.19582,-50.66604 54.61619,-51.5192 0.20542,-0.4169 -0.23695,-0.95246 -2.77812,-3.3634 -1.66235,-1.57715 -2.96292,-2.93087 -2.89016,-3.00827 0.0728,-0.0774 2.59611,-0.56689 5.60743,-1.08777 25.221297,-4.36257 45.462933,-11.64088 57.521191,-20.68296 4.573206,-3.4293 8.823161,-8.56749 10.034796,-12.13206 0.275186,-0.80958 0.579319,-1.47196 0.675855,-1.47196 0.09654,0 0.261487,26.75929 0.366559,59.4651 l 0.191042,59.4651 -0.5818,2.11667 c -1.573842,5.72586 -5.835303,11.00062 -12.69632,15.71527 -18.450914,12.67881 -52.407418,21.19956 -92.868753,23.30363 -5.91457,0.30758 -29.14651,0.2962 -35.05729,-0.0172 z m -4.33933,-109.96811 c -7.47986,-7.08399 -13.46457,-12.92505 -13.29935,-12.98012 0.16522,-0.0551 2.35604,0.083 4.8685,0.30689 4.55413,0.40578 11.18082,0.82655 18.45872,1.17205 l 3.83646,0.18213 0.0688,12.10468 c 0.0379,6.65758 -0.0217,12.10237 -0.13229,12.09953 -0.11061,-0.003 -6.321,-5.80116 -13.80086,-12.88516 z m 30.46425,0.80858 0.0688,-12.12764 3.83646,-0.18212 c 7.2779,-0.3455 13.90459,-0.76627 18.45873,-1.17205 2.51245,-0.22386 4.70355,-0.36187 4.86911,-0.30668 0.27573,0.0919 -26.46067,25.6233 -27.046,25.82703 -0.16311,0.0568 -0.23099,-4.31017 -0.18713,-12.03854 z"
         style="fill:#535e7e;stroke-width:0.26458332" />
      <path
         id="path922"
         d="m -171.04611,385.19477 c -0.87313,-0.05 -3.84969,-0.21683 -6.61458,-0.37065 -25.16987,-1.40015 -50.25347,-6.06253 -68.25623,-12.68707 -14.87877,-5.47496 -25.67572,-12.37861 -30.50524,-19.50524 -1.40382,-2.07153 -2.01152,-3.31385 -2.67643,-5.47143 -0.55483,-1.80036 -0.55896,-2.03288 -0.55575,-31.35313 l 0.003,-29.53932 0.86718,1.98438 c 5.11396,11.70233 23.09296,21.88924 50.8524,28.81299 35.95389,8.96762 84.23357,10.41376 124.04205,3.71548 27.196743,-4.57619 48.66223,-12.42468 60.551227,-22.13954 3.902945,-3.18921 6.736479,-6.71871 8.340378,-10.38893 l 0.867177,-1.98438 0.0032,29.53932 c 0.0032,29.32025 -7.94e-4,29.55277 -0.555744,31.35313 -1.020913,3.31274 -2.650471,5.90729 -5.743554,9.14478 -8.137617,8.51755 -24.471463,16.11987 -45.891407,21.35938 -14.762207,3.61098 -29.620997,5.78221 -49.141487,7.18074 -3.82525,0.27406 -32.06446,0.55139 -35.58645,0.34949 z"
         style="fill:#37444e;stroke-width:0.26458332" />
    </g>
  </g>
</svg>
