<?xml version="1.0" encoding="UTF-8" standalone="no"?>
<svg
   xmlns:dc="http://purl.org/dc/elements/1.1/"
   xmlns:cc="http://creativecommons.org/ns#"
   xmlns:rdf="http://www.w3.org/1999/02/22-rdf-syntax-ns#"
   xmlns:svg="http://www.w3.org/2000/svg"
   xmlns="http://www.w3.org/2000/svg"
   id="svg8"
   version="1.1"
   viewBox="0 0 5.5562506 6.6145831"
   height="25"
   width="21.000002">
  <defs
     id="defs2" />
  <metadata
     id="metadata5">
    <rdf:RDF>
      <cc:Work
         rdf:about="">
        <dc:format>image/svg+xml</dc:format>
        <dc:type
           rdf:resource="http://purl.org/dc/dcmitype/StillImage" />
        <dc:title></dc:title>
      </cc:Work>
    </rdf:RDF>
  </metadata>
  <g
     transform="translate(21.313793,-271.38101)"
     id="layer1">
    <g
       transform="matrix(0.02414602,0,0,0.02414602,-21.088346,271.2075)"
       id="g826">
      <path
         id="path832"
         d="M 99.158019,280.8006 C 84.503674,278.4199 72.13615,269.15983 65.163876,255.34787 c -0.71247,-1.4114 -0.947129,-1.6587 -1.689735,-1.78062 -0.474318,-0.0779 -3.065039,-0.44816 -5.757174,-0.82287 -11.92588,-1.6599 -66.5602691,-11.01072 -67.0202366,-11.47069 -0.1893305,-0.18933 0.4176898,-0.99376 1.9597687,-2.59713 17.1784116,-17.86108 27.9175929,-39.99786 31.1623899,-64.23534 0.292224,-2.18281 0.606676,-4.445 0.698783,-5.02708 0.09211,-0.58209 0.261977,-14.81005 0.377489,-31.61771 0.226885,-33.01291 0.201453,-32.43588 1.729758,-39.250089 4.898753,-21.841962 22.549514,-41.577072 44.651943,-49.924816 l 2.315105,-0.874377 v -5.21816 c 0,-2.869985 0.123851,-6.424977 0.275219,-7.899976 0.768218,-7.486301 3.768831,-13.871801 8.971254,-19.091547 2.6797,-2.688618 4.841663,-4.262194 8.083735,-5.8837049 7.25506,-3.6286107 15.487465,-4.2993289 23.152155,-1.8862741 3.15285,0.9926135 5.26878,1.9960833 7.90707,3.749913 5.67693,3.773814 10.26382,9.703781 12.32088,15.9285 1.30463,3.947917 1.52535,5.611654 1.69884,12.806199 l 0.1648,6.833793 3.43959,1.304848 c 10.29128,3.904126 18.41079,9.2236 26.06614,17.077159 9.41028,9.653942 15.28032,20.693044 17.84927,33.567073 1.12389,5.632299 1.19599,7.718969 1.19697,34.640219 0,25.4237 0.13708,30.82191 0.94806,37.59103 2.9197,24.37101 14.4354,48.0503 32.44408,66.71359 1.42465,1.47642 2.59027,2.86595 2.59027,3.08783 0,0.49823 2.68698,-0.0142 -24.47396,4.66725 -26.27061,4.52799 -35.5161,6.05352 -42.46562,7.00696 -2.69214,0.36935 -5.27519,0.73658 -5.74011,0.81606 -0.7643,0.13068 -0.98928,0.41848 -2.34807,3.00368 -2.30243,4.3805 -4.60783,7.45313 -8.57219,11.42495 -2.6752,2.68023 -4.34943,4.09773 -6.62297,5.60739 -5.08489,3.37643 -10.28329,5.59102 -16.00729,6.81929 -3.48811,0.74848 -11.7956,0.95867 -15.312071,0.38738 z m 7.705301,-238.593287 6.68073,0.02842 V 39.37624 c 0,-5.081773 -1.49823,-8.008348 -4.97348,-9.714923 -1.29323,-0.635067 -1.83015,-0.740929 -3.75777,-0.740929 -1.92368,0 -2.46557,0.106378 -3.74663,0.735483 -1.800042,0.883955 -3.221304,2.388426 -4.12864,4.370285 -0.559488,1.222084 -0.691991,1.981279 -0.798909,4.576961 -0.07049,1.71152 -0.05175,3.310929 0.04159,3.554243 0.147796,0.385111 0.417883,0.415144 2.086081,0.231963 1.053968,-0.115732 4.922628,-0.197636 8.597028,-0.18201 z"
         style="fill:#f8d291;stroke-width:0.26458332" />
      <path
         id="path830"
         d="M 101.02264,280.65659 C 96.211937,280.0975 90.488576,278.41348 86.371183,276.34557 77.566829,271.92378 69.447771,263.66844 65.484578,255.10843 l -0.871723,-1.88279 -3.51409,-0.45965 C 50.853537,251.42588 -8.69345,241.32377 -8.69345,240.92578 c 0,-0.11697 1.2608137,-1.55072 2.8018105,-3.18612 17.1452855,-18.19556 27.8158835,-41.2436 30.5303555,-65.94427 0.159919,-1.45521 0.357701,-3.00302 0.439513,-3.43959 0.08181,-0.43656 0.237781,-14.48593 0.346593,-31.22083 0.211855,-32.58269 0.174369,-31.68867 1.608622,-38.364582 1.91879,-8.93127 7.035379,-19.377975 13.231545,-27.015271 2.442279,-3.010315 7.113371,-7.754194 10.175936,-10.334506 5.67432,-4.780801 14.53933,-10.006131 21.034375,-12.398343 1.091406,-0.401979 2.133203,-0.847442 2.315104,-0.989917 0.248682,-0.194794 0.330729,-1.883101 0.330729,-6.806576 0,-7.283781 0.277416,-9.627838 1.610255,-13.606081 C 81.370373,10.788452 100.0717,2.3062733 116.64473,9.063031 c 3.60603,1.470156 6.4634,3.401582 9.61009,6.495899 3.00228,2.95229 4.45669,4.903684 6.08671,8.166602 2.53087,5.066216 3.16148,8.43873 3.16698,16.937326 0.003,3.437059 0.0981,6.397213 0.21294,6.578121 0.11488,0.180909 1.03579,0.611204 2.04647,0.956212 13.04854,4.454295 24.94354,13.055619 33.17262,23.987192 6.49226,8.624398 10.43122,17.636749 12.48698,28.570377 0.55713,2.96309 0.57716,3.83198 0.76541,33.20521 0.19209,29.97201 0.24196,31.58219 1.20026,38.76146 3.17426,23.78085 13.75074,45.42436 31.70912,64.88902 1.9808,2.14694 2.98418,3.41958 2.75984,3.50044 -0.41814,0.15072 -40.07477,7.00436 -51.28477,8.86327 -4.29286,0.71187 -10.80225,1.71889 -14.46527,2.23783 -3.66305,0.51894 -6.81821,1.01245 -7.01146,1.09669 -0.19328,0.0842 -0.86953,1.22692 -1.50281,2.53929 -3.42138,7.09031 -9.94163,14.25595 -16.77318,18.43343 -8.44163,5.16205 -18.46469,7.46038 -27.80202,6.37519 z M 51.493292,126.6534 c 1.365517,-0.3791 2.915764,-1.93839 3.264255,-3.2833 0.149897,-0.57849 0.399269,-2.48055 0.554159,-4.2268 0.36028,-4.06181 1.28761,-7.44542 3.055686,-11.14946 6.352064,-13.307285 19.087782,-21.967791 36.788116,-25.01654 4.697413,-0.809095 15.861852,-0.878004 20.372922,-0.125743 5.85366,0.976151 9.31611,1.926614 14.74671,4.04808 3.93991,1.539124 4.80118,1.662658 6.43091,0.922383 2.89824,-1.316496 3.80179,-4.872467 1.9123,-7.526023 -1.42793,-2.005335 -12.13485,-5.678633 -20.52296,-7.040957 -17.66047,-2.868266 -36.607436,0.631796 -49.662798,9.174179 -14.21156,9.2989 -22.984153,23.781791 -23.18562,38.277721 -0.02979,2.14362 0.04856,2.62253 0.585324,3.57757 0.627041,1.11567 1.768893,2.00247 3.09099,2.40055 1.014539,0.30548 1.371446,0.30109 2.570006,-0.0317 z m 55.393468,-83.949117 6.96878,0.02556 -0.0896,-3.862019 c -0.0835,-3.599831 -0.13989,-3.964451 -0.83053,-5.370836 -2.6212,-5.337773 -9.8706,-6.690579 -14.176505,-2.645473 -0.798354,0.749993 -1.617689,1.874189 -2.063565,2.831372 -0.669395,1.437071 -0.748532,1.920243 -0.835025,5.098987 -0.05255,1.931318 -0.02513,3.69479 0.06078,3.918831 0.13171,0.343252 0.458444,0.373568 2.076609,0.19268 1.05619,-0.118065 5.056266,-0.20316 8.889066,-0.189103 z"
         style="fill:#ecae4a;stroke-width:0.26458332" />
      <path
         id="path828"
         d="m 101.90238,280.39182 c -13.408577,-1.02748 -26.201499,-8.97398 -33.645683,-20.89948 -1.532123,-2.45443 -3.037179,-5.46166 -2.834746,-5.66408 0.06953,-0.0695 2.150613,0.10501 4.624625,0.38786 20.620699,2.35753 39.549944,2.73447 59.107894,1.17702 4.90722,-0.39077 13.3922,-1.25227 15.80885,-1.60512 0.98229,-0.14342 1.12448,-0.1013 1.12448,0.33312 0,0.63764 -2.70383,5.32158 -4.68606,8.11779 -1.94673,2.74615 -7.26546,8.06284 -10.00657,10.00277 -8.89781,6.29703 -18.61886,8.9834 -29.49279,8.15012 z M 74.385717,41.403258 c 0,-3.42478 0.127688,-7.144888 0.283739,-8.266912 1.563026,-11.237678 9.64102,-20.943917 20.430543,-24.5486363 3.687842,-1.2320892 6.222871,-1.5677312 10.771131,-1.4261132 4.98367,0.155175 7.96031,0.8494038 11.99547,2.797633 9.1359,4.4109425 15.1448,12.2982655 16.97035,22.2754515 0.31512,1.722135 0.39597,3.730109 0.34171,8.485785 l -0.0711,6.229826 -3.47244,-0.994018 c -4.32623,-1.238414 -9.21404,-2.238714 -13.85777,-2.836011 l -3.57187,-0.459433 -0.13229,-3.827513 c -0.11856,-3.43046 -0.20498,-3.982532 -0.83291,-5.321868 -0.8536,-1.820683 -2.38604,-3.400806 -4.25127,-4.383588 -1.27212,-0.670258 -1.64846,-0.73664 -4.17624,-0.73664 -2.49484,0 -2.91357,0.0715 -4.10628,0.701199 -1.643513,0.867691 -3.681413,3.008651 -4.440688,4.665284 -0.484849,1.057871 -0.586475,1.841778 -0.666856,5.143241 l -0.09483,3.895138 -0.835793,0.130905 c -6.019456,0.942803 -8.476403,1.393026 -11.154515,2.044015 -2.687109,0.653176 -7.529169,2.045549 -8.771943,2.522444 -0.292312,0.112168 -0.356182,-0.980077 -0.356182,-6.090189 z"
         style="fill:#db9527;stroke-width:0.26458332" />
    </g>
  </g>
</svg>
