<?xml version="1.0" encoding="UTF-8" standalone="no"?>
<svg
   xmlns:dc="http://purl.org/dc/elements/1.1/"
   xmlns:cc="http://creativecommons.org/ns#"
   xmlns:rdf="http://www.w3.org/1999/02/22-rdf-syntax-ns#"
   xmlns:svg="http://www.w3.org/2000/svg"
   xmlns="http://www.w3.org/2000/svg"
   id="svg8"
   version="1.1"
   viewBox="0 0 6.3499999 6.3499991"
   height="23.999996"
   width="24">
  <defs
     id="defs2" />
  <metadata
     id="metadata5">
    <rdf:RDF>
      <cc:Work
         rdf:about="">
        <dc:format>image/svg+xml</dc:format>
        <dc:type
           rdf:resource="http://purl.org/dc/dcmitype/StillImage" />
        <dc:title></dc:title>
      </cc:Work>
    </rdf:RDF>
  </metadata>
  <g
     transform="translate(377.15591,-471.88267)"
     style="display:inline"
     id="layer1">
    <g
       transform="matrix(0.02338138,0,0,0.02338138,-366.18464,467.66956)"
       id="g944">
      <path
         id="path952"
         d="m -344.37528,451.51282 c -25.50775,-2.07603 -50.16955,-11.50136 -70.76491,-27.04513 -3.46064,-2.61183 -6.44179,-5.04629 -6.95092,-5.67627 -0.27578,-0.34123 6.19876,-6.94146 42.59341,-43.42031 23.60525,-23.65986 43.09925,-43.05063 43.32,-43.09062 0.2354,-0.0426 18.72229,18.25104 44.70575,44.23853 l 44.30438,44.31121 -0.50984,0.56337 c -0.28041,0.30984 -2.06035,1.72992 -3.95541,3.15573 -20.5341,15.44938 -44.38637,24.61698 -69.90575,26.86819 -4.86185,0.42889 -18.06125,0.48397 -22.83671,0.0953 z m 99.20428,-55.46119 c -68.0464,-68.27406 -70.21816,-70.47346 -69.83012,-70.71883 0.43124,-0.2727 116.34287,-0.36682 117.05108,-0.0951 0.53646,0.20586 0.53808,1.30354 0.009,5.92482 -3.05655,26.68244 -13.79305,51.73536 -30.82749,71.93403 -3.93336,4.664 -4.05662,4.80016 -4.34306,4.79752 -0.14217,-10e-4 -5.56877,-5.33043 -12.05912,-11.84249 z m -191.31315,8.4382 c -0.19965,-0.27031 -1.55419,-1.96695 -3.01009,-3.77031 -22.81397,-28.25867 -33.23255,-65.24169 -28.69511,-101.85947 4.44955,-35.90841 23.20696,-68.69584 51.9797,-90.85906 18.24573,-14.05442 40.02744,-23.35809 62.57396,-26.72734 4.16032,-0.62171 10.3002,-1.23086 10.59152,-1.05082 0.1644,0.10161 0.25278,23.76614 0.24632,65.95796 l -0.0101,65.79948 -46.35815,46.51213 c -25.49699,25.58166 -46.49246,46.5069 -46.65661,46.50052 -0.16415,-0.006 -0.46181,-0.23277 -0.66146,-0.50309 z m 112.79929,-98.25101 c -0.41006,-0.41006 -0.46762,-125.76474 -0.0579,-126.01798 0.14279,-0.0883 2.13709,0.0322 4.43177,0.26759 24.31659,2.49479 47.43388,11.52807 67.15765,26.24243 7.7217,5.76055 16.87509,14.36289 22.59815,21.2377 18.45678,22.17113 29.04665,47.66457 31.64165,76.17231 0.13732,1.50843 0.0958,2.00196 -0.18327,2.17876 -0.19997,0.12669 -28.20011,0.23039 -62.81568,0.23264 -48.22778,0.003 -62.52723,-0.0683 -62.7724,-0.31345 z"
         style="fill:#efc21b;stroke-width:0.26458332" />
      <path
         id="path950"
         d="m -344.37528,451.51282 c -25.50775,-2.07603 -50.16955,-11.50136 -70.76491,-27.04513 -3.46064,-2.61183 -6.44179,-5.04629 -6.95092,-5.67627 -0.27578,-0.34123 6.19876,-6.94146 42.59341,-43.42031 23.60525,-23.65986 43.09925,-43.05063 43.32,-43.09062 0.2354,-0.0426 18.72229,18.25104 44.70575,44.23853 l 44.30438,44.31121 -0.50984,0.56337 c -0.28041,0.30984 -2.06035,1.72992 -3.95541,3.15573 -20.5341,15.44938 -44.38637,24.61698 -69.90575,26.86819 -4.86185,0.42889 -18.06125,0.48397 -22.83671,0.0953 z m -92.10887,-47.02299 c -0.19965,-0.27031 -1.55419,-1.96695 -3.01009,-3.77031 -22.81397,-28.25867 -33.23255,-65.24169 -28.69511,-101.85947 4.44955,-35.90841 23.20696,-68.69584 51.9797,-90.85906 18.24573,-14.05442 40.02744,-23.35809 62.57396,-26.72734 4.16032,-0.62171 10.3002,-1.23086 10.59152,-1.05082 0.1644,0.10161 0.25278,23.76614 0.24632,65.95796 l -0.0101,65.79948 -46.35815,46.51213 c -25.49699,25.58166 -46.49246,46.5069 -46.65661,46.50052 -0.16415,-0.006 -0.46181,-0.23277 -0.66146,-0.50309 z m 112.79929,-98.25101 c -0.41006,-0.41006 -0.46762,-125.76474 -0.0579,-126.01798 0.14279,-0.0883 2.13709,0.0322 4.43177,0.26759 24.31659,2.49479 47.43388,11.52807 67.15765,26.24243 7.7217,5.76055 16.87509,14.36289 22.59815,21.2377 18.45678,22.17113 29.04665,47.66457 31.64165,76.17231 0.13732,1.50843 0.0958,2.00196 -0.18327,2.17876 -0.19997,0.12669 -28.20011,0.23039 -62.81568,0.23264 -48.22778,0.003 -62.52723,-0.0683 -62.7724,-0.31345 z"
         style="fill:#ef7759;stroke-width:0.26458332" />
      <path
         id="path948"
         d="m -344.37528,451.51282 c -25.50775,-2.07603 -50.16955,-11.50136 -70.76491,-27.04513 -3.46064,-2.61183 -6.44179,-5.04629 -6.95092,-5.67627 -0.27578,-0.34123 6.19876,-6.94146 42.59341,-43.42031 23.60525,-23.65986 43.09925,-43.05063 43.32,-43.09062 0.2354,-0.0426 18.72229,18.25104 44.70575,44.23853 l 44.30438,44.31121 -0.50984,0.56337 c -0.28041,0.30984 -2.06035,1.72992 -3.95541,3.15573 -20.5341,15.44938 -44.38637,24.61698 -69.90575,26.86819 -4.86185,0.42889 -18.06125,0.48397 -22.83671,0.0953 z m -92.10887,-47.02299 c -0.19965,-0.27031 -1.55419,-1.96695 -3.01009,-3.77031 -22.81397,-28.25867 -33.23255,-65.24169 -28.69511,-101.85947 4.44955,-35.90841 23.20696,-68.69584 51.9797,-90.85906 18.24573,-14.05442 40.02744,-23.35809 62.57396,-26.72734 4.16032,-0.62171 10.3002,-1.23086 10.59152,-1.05082 0.1644,0.10161 0.25278,23.76614 0.24632,65.95796 l -0.0101,65.79948 -46.35815,46.51213 c -25.49699,25.58166 -46.49246,46.5069 -46.65661,46.50052 -0.16415,-0.006 -0.46181,-0.23277 -0.66146,-0.50309 z"
         style="fill:#70c085;stroke-width:0.26458332" />
      <path
         id="path946"
         d="m -436.48415,404.48983 c -0.19965,-0.27031 -1.55419,-1.96695 -3.01009,-3.77031 -22.81397,-28.25867 -33.23255,-65.24169 -28.69511,-101.85947 4.44955,-35.90841 23.20696,-68.69584 51.9797,-90.85906 18.24573,-14.05442 40.02744,-23.35809 62.57396,-26.72734 4.16032,-0.62171 10.3002,-1.23086 10.59152,-1.05082 0.1644,0.10161 0.25278,23.76614 0.24632,65.95796 l -0.0101,65.79948 -46.35815,46.51213 c -25.49699,25.58166 -46.49246,46.5069 -46.65661,46.50052 -0.16415,-0.006 -0.46181,-0.23277 -0.66146,-0.50309 z"
         style="fill:#4773df;stroke-width:0.26458332" />
    </g>
  </g>
  <g
     transform="translate(377.15591,-471.88267)"
     style="display:inline"
     id="layer2" />
</svg>
