<?xml version="1.0" encoding="UTF-8" standalone="no"?>
<svg
   xmlns:dc="http://purl.org/dc/elements/1.1/"
   xmlns:cc="http://creativecommons.org/ns#"
   xmlns:rdf="http://www.w3.org/1999/02/22-rdf-syntax-ns#"
   xmlns:svg="http://www.w3.org/2000/svg"
   xmlns="http://www.w3.org/2000/svg"
   id="svg8"
   version="1.1"
   viewBox="0 0 5.2916684 3.9686227"
   height="3.9686227mm"
   width="5.2916684mm">
  <defs
     id="defs2" />
  <metadata
     id="metadata5">
    <rdf:RDF>
      <cc:Work
         rdf:about="">
        <dc:format>image/svg+xml</dc:format>
        <dc:type
           rdf:resource="http://purl.org/dc/dcmitype/StillImage" />
        <dc:title></dc:title>
      </cc:Work>
    </rdf:RDF>
  </metadata>
  <g
     transform="translate(36.078083,-272.96599)"
     id="layer1">
    <g
       transform="matrix(0.01427182,0,0,0.01427182,-34.510738,272.87283)"
       id="g836">
      <path
         id="path842"
         d="m -80.716808,284.25456 c -14.538864,-2.63377 -25.669602,-13.63223 -28.624002,-28.28388 -0.45916,-2.27708 -0.48016,-7.10928 -0.48016,-110.46354 0,-104.961922 0.0144,-108.151037 0.49997,-110.463541 1.54509,-7.358977 4.60494,-13.052861 9.813551,-18.261474 4.106055,-4.106055 8.090478,-6.636279 13.234391,-8.4042223 5.066069,-1.7411888 6.447493,-1.9052739 15.478125,-1.8384854 10.295575,0.076144 281.850863,0.078765 292.629163,0.00283 6.76863,-0.04769 8.44019,0.01728 10.36696,0.4029416 12.62978,2.5279573 22.89434,11.4673071 26.94726,23.4682071 0.31943,0.945885 0.83298,2.791354 1.14122,4.101041 l 0.56044,2.38125 0.085,106.759373 c 0.0587,73.73552 -0.003,107.61888 -0.19486,109.53797 -1.38123,13.71182 -10.77725,25.4058 -23.91172,29.75984 -4.67535,1.54985 -6.90827,1.77744 -15.6558,1.59564 -8.82435,-0.18335 -279.852665,-0.21174 -291.835412,-0.0306 -6.202725,0.0938 -8.400108,0.0362 -10.054166,-0.2634 z"
         style="fill:#ebeef0;stroke-width:0.26458332" />
      <path
         id="path840"
         d="m -80.966882,283.98834 c -6.884554,-1.2491 -13.479339,-4.76089 -18.534558,-9.86978 -4.91623,-4.96845 -8.045,-10.85559 -9.57453,-18.01559 -0.45973,-2.1521 -0.48042,-6.91516 -0.48042,-110.59583 0,-104.567999 0.0171,-108.424828 0.49109,-110.58192 1.08807,-4.951926 2.67177,-8.740805 5.31003,-12.703779 4.975298,-7.473476 12.410417,-12.6199219 21.31867,-14.7563691 2.585318,-0.6200309 3.347368,-0.674125 10.980208,-0.7794291 8.199904,-0.1131274 8.20234,-0.1129954 9.164672,0.496358 0.529426,0.3352335 31.635467,24.8387342 69.1245365,54.4522242 37.4890715,29.613489 68.3693445,53.873285 68.6228285,53.910665 0.276616,0.0408 27.858415,-21.575121 68.987965,-54.06601 37.68989,-29.773679 68.87255,-54.3137609 69.2948,-54.5335159 1.12604,-0.5860373 16.04565,-0.3449095 18.94374,0.3061653 7.13899,1.6038171 12.695,4.6333506 17.72843,9.6667696 5.52252,5.522512 8.78158,11.959675 9.9372,19.627581 0.33435,2.218489 0.37528,16.959903 0.30638,110.33125 -0.0746,101.11151 -0.10781,107.88508 -0.53723,109.62272 -2.44581,9.89746 -7.36008,17.11521 -15.13166,22.22436 -2.86321,1.8823 -4.95794,2.90227 -8.1567,3.97161 -4.46545,1.49278 -6.44126,1.71855 -14.96285,1.70977 l -7.57211,-0.008 -69.10231,-54.57702 C 107.18503,199.80338 75.791258,175.10806 75.427369,174.94226 75.063479,174.77646 43.870014,150.8812 6.1085541,121.84168 -31.652904,92.802165 -62.617975,69.042558 -62.702716,69.042558 c -0.08474,0 -0.183983,48.428672 -0.22054,107.619272 l -0.06647,107.61927 -7.9375,0.0443 c -5.92768,0.0331 -8.469778,-0.0523 -10.039657,-0.33708 z"
         style="fill:#ced6da;stroke-width:0.26458332" />
      <path
         id="path838"
         d="m -78.997017,283.97201 c -8.309844,-1.31574 -14.697712,-4.44952 -20.116659,-9.86885 -5.894814,-5.89524 -9.196794,-12.90749 -10.047654,-21.33763 -0.20754,-2.05628 -0.26616,-33.30829 -0.20492,-109.24276 l 0.0858,-106.362504 0.59474,-2.578068 c 1.63869,-7.103307 4.55732,-12.425162 9.555251,-17.423093 5.023475,-5.023475 10.492673,-8.0124951 17.423092,-9.5220505 2.201006,-0.4794139 3.719643,-0.579297 10.383277,-0.682925 7.389593,-0.1149175 7.847476,-0.094051 8.598958,0.3918619 0.436563,0.2822837 31.630938,24.8747606 69.3208337,54.6499506 37.6898963,29.775189 68.7057773,54.137998 68.9241803,54.139578 0.218406,0.002 31.456838,-24.525321 69.418738,-54.504224 37.96189,-29.978903 69.31044,-54.57958 69.6634,-54.6681715 0.35298,-0.088592 3.99986,-0.098855 8.10418,-0.022807 6.252,0.1158406 7.88059,0.2291011 10.04049,0.6982745 6.59601,1.4327865 12.1838,4.397673 16.95778,8.99785 5.14194,4.954724 8.32144,10.686503 10.13738,18.274866 0.45194,1.888549 0.47908,7.13353 0.56216,108.611462 0.0618,75.42455 0.003,107.46103 -0.20018,109.4769 -1.46286,14.49976 -11.6726,26.41333 -25.83289,30.14396 -3.13801,0.82674 -3.15976,0.82854 -11.44693,0.94237 -6.76638,0.0929 -8.34472,0.0481 -8.52874,-0.24231 -0.12422,-0.19598 -0.22767,-48.72548 -0.2299,-107.84332 -0.003,-74.09346 -0.0893,-107.486978 -0.27865,-107.486978 -0.15103,0 -31.25611,23.830576 -69.12239,52.956838 -37.86629,29.12626 -68.989008,52.96852 -69.161601,52.98281 C 75.430123,174.46733 44.322285,150.66652 6.4741871,121.56235 -31.373908,92.458183 -62.516367,68.607186 -62.731275,68.560138 c -0.344098,-0.07533 -0.390742,12.737039 -0.390742,107.333042 0,59.08023 -0.07227,107.60692 -0.160599,107.83711 -0.141642,0.36912 -1.039485,0.41426 -7.606771,0.38248 -4.095393,-0.0198 -7.743828,-0.0832 -8.10763,-0.14076 z"
         style="fill:#f24235;stroke-width:0.26458332" />
    </g>
  </g>
</svg>
