<?xml version="1.0" encoding="UTF-8" standalone="no"?>
<svg
   xmlns:dc="http://purl.org/dc/elements/1.1/"
   xmlns:cc="http://creativecommons.org/ns#"
   xmlns:rdf="http://www.w3.org/1999/02/22-rdf-syntax-ns#"
   xmlns:svg="http://www.w3.org/2000/svg"
   xmlns="http://www.w3.org/2000/svg"
   id="svg8"
   version="1.1"
   viewBox="0 0 6.3500009 5.2916665"
   height="20"
   width="24.000004">
  <defs
     id="defs2" />
  <metadata
     id="metadata5">
    <rdf:RDF>
      <cc:Work
         rdf:about="">
        <dc:format>image/svg+xml</dc:format>
        <dc:type
           rdf:resource="http://purl.org/dc/dcmitype/StillImage" />
        <dc:title></dc:title>
      </cc:Work>
    </rdf:RDF>
  </metadata>
  <g
     transform="translate(85.966765,-265.7645)"
     id="layer1">
    <g
       style="fill:#05aee7;fill-opacity:1"
       transform="matrix(0.01936846,0,0,0.01936846,-82.251892,266.09906)"
       id="g826">
      <path
         id="path830"
         d="m -182.0363,255.54459 c -4.792,-1.29069 -8.15045,-4.74908 -9.36814,-9.64697 -0.52702,-2.11984 -0.52779,-32.53585 -8.8e-4,-34.66042 1.21209,-4.88723 4.82683,-8.52504 9.5856,-9.64676 1.50162,-0.35396 19.08047,-0.39958 153.962873,-0.39958 168.007107,0 153.880427,-0.1483 157.255977,1.65085 2.86496,1.52701 4.80155,3.88021 6.03819,7.33716 l 0.61521,1.71979 v 16.53646 c 0,16.38829 -0.005,16.55334 -0.59248,18.42029 -1.40325,4.46172 -4.62304,7.50684 -9.18655,8.68815 -1.41271,0.36571 -17.47679,0.4064 -154.252081,0.39082 -130.377229,-0.0148 -152.877059,-0.0718 -154.057719,-0.38979 z m 1.61732,-108.8645 c -5.4519,-0.80267 -9.42666,-4.29307 -10.87988,-9.55405 -0.42316,-1.53195 -0.46736,-3.21835 -0.46736,-17.83155 0,-14.91567 0.0369,-16.25997 0.48649,-17.72708 1.52361,-4.971809 5.0127,-8.234095 9.9186,-9.273868 2.65423,-0.562544 304.35163,-0.563121 307.00577,-5.29e-4 3.86789,0.819787 7.0608,3.163977 8.7534,6.426591 1.6669,3.213086 1.65449,3.056636 1.65449,20.839526 0,14.91799 -0.0368,16.25889 -0.48636,17.71579 -1.4293,4.63214 -4.2078,7.4535 -8.90635,9.04377 -1.41198,0.4779 -5.97384,0.49354 -153.590625,0.52657 -83.674475,0.0187 -152.744155,-0.0556 -153.488175,-0.16511 z m -1.06169,-109.404125 c -4.81833,-1.047991 -8.28622,-4.32607 -9.79906,-9.262722 -0.4496,-1.467114 -0.48649,-2.811407 -0.48649,-17.727083 0,-14.6131936 0.0442,-16.2995996 0.46736,-17.8315469 0.65961,-2.3879387 1.68209,-4.1638601 3.368,-5.8497611 1.6859,-1.685902 3.46182,-2.708387 5.84976,-3.367996 1.60834,-0.444264 9.23053,-0.467363 154.224253,-0.467363 144.993727,0 152.615897,0.0231 154.224247,0.467363 2.38268,0.658152 4.15613,1.677553 5.88404,3.382194 1.60698,1.585338 2.54662,3.197383 3.31473,5.686744 0.44955,1.4568982 0.48636,2.7977901 0.48636,17.715783 0,17.324379 -0.013,17.513847 -1.3861,20.461033 -0.93948,2.01621 -3.39434,4.535863 -5.41417,5.557086 -3.48141,1.760181 9.92643,1.623306 -157.241398,1.605211 -125.465812,-0.01357 -152.152612,-0.07773 -153.491532,-0.368942 z"
         style="fill:#05aee7;fill-opacity:1;stroke-width:0.26458332" />
      <path
         id="path828"
         d="m -181.92412,255.13332 c -3.12128,-0.73631 -6.49211,-3.376 -7.85475,-6.151 -1.52405,-3.10373 -1.58129,-3.84276 -1.58129,-20.41491 0,-16.35938 0.0697,-17.31886 1.4645,-20.1698 1.47256,-3.00979 4.46135,-5.37681 7.93002,-6.28028 1.38795,-0.36151 17.97816,-0.40513 154.108793,-0.40513 134.370707,0 152.734007,0.047 154.068647,0.39467 4.78705,1.24687 7.95057,4.56045 9.04317,9.47214 0.36909,1.65913 0.41346,3.98886 0.34134,17.91444 -0.082,15.82611 -0.0896,16.02502 -0.6745,17.57365 -0.32534,0.86149 -0.88318,2.06402 -1.23963,2.67224 -1.03447,1.7652 -3.55706,3.91798 -5.60634,4.78446 l -1.81289,0.76653 -153.59063,0.0401 c -89.84303,0.0236 -154.00809,-0.0583 -154.59644,-0.19714 z m 0.41385,-109.11964 c -3.54469,-0.77012 -6.74554,-3.20281 -8.25284,-6.27228 -1.53794,-3.13187 -1.59679,-3.87429 -1.59964,-20.18232 -0.002,-8.95717 0.10586,-15.49679 0.27166,-16.53646 0.30282,-1.89897 1.40712,-4.495659 2.55142,-5.999553 1.10544,-1.452811 3.55305,-3.137646 5.57049,-3.834487 l 1.78629,-0.617003 H -27.724555 125.73378 l 1.56615,0.596471 c 4.38774,1.671087 7.00571,4.719021 7.9729,9.282252 0.54353,2.5645 0.54546,31.37943 0.003,33.9421 -1.06386,5.01918 -4.62213,8.57743 -9.64131,9.64132 -2.57804,0.54646 -304.62727,0.52674 -307.14403,-0.02 z M -181.7523,36.76571 c -4.8889,-1.185868 -8.54416,-5.180441 -9.34059,-10.207675 -0.16342,-1.031542 -0.27142,-7.649334 -0.26986,-16.536458 0.002,-12.0437866 0.0757,-15.163277 0.39317,-16.6687503 1.099,-5.2113977 4.57529,-8.6876887 9.78669,-9.7866937 1.62064,-0.341768 20.78099,-0.390576 153.326043,-0.390576 132.545057,0 151.705417,0.04881 153.326037,0.390576 3.90253,0.822982 7.02083,3.08857 8.62502,6.266437 1.50183,2.9751039 1.55226,3.6352708 1.55226,20.321298 0,16.558305 -0.0643,17.434777 -1.49428,20.368303 -1.4595,2.994088 -4.93898,5.584714 -8.49757,6.326812 -2.16083,0.450606 -305.54474,0.368427 -307.40692,-0.08327 z"
         style="fill:#05aee7;fill-opacity:1;stroke-width:0.26458332" />
    </g>
  </g>
</svg>
