<?xml version="1.0" encoding="UTF-8" standalone="no"?>
<!-- Created with Inkscape (http://www.inkscape.org/) -->

<svg
   xmlns:dc="http://purl.org/dc/elements/1.1/"
   xmlns:cc="http://creativecommons.org/ns#"
   xmlns:rdf="http://www.w3.org/1999/02/22-rdf-syntax-ns#"
   xmlns:svg="http://www.w3.org/2000/svg"
   xmlns="http://www.w3.org/2000/svg"
   xmlns:sodipodi="http://sodipodi.sourceforge.net/DTD/sodipodi-0.dtd"
   xmlns:inkscape="http://www.inkscape.org/namespaces/inkscape"
   width="16.000004"
   height="16.004236"
   viewBox="0 0 4.2333342 4.2344543"
   version="1.1"
   id="svg8"
   inkscape:version="0.92.4 (5da689c313, 2019-01-14)"
   sodipodi:docname="popup-close-icon.svg">
  <defs
     id="defs2" />
  <sodipodi:namedview
     id="base"
     pagecolor="#ffffff"
     bordercolor="#666666"
     borderopacity="1.0"
     inkscape:pageopacity="0.0"
     inkscape:pageshadow="2"
     inkscape:zoom="5.6"
     inkscape:cx="-9.391021"
     inkscape:cy="2.7280513"
     inkscape:document-units="mm"
     inkscape:current-layer="layer1"
     showgrid="false"
     units="px"
     fit-margin-top="0"
     fit-margin-left="0"
     fit-margin-right="0"
     fit-margin-bottom="0"
     inkscape:window-width="1920"
     inkscape:window-height="1017"
     inkscape:window-x="-8"
     inkscape:window-y="-8"
     inkscape:window-maximized="1" />
  <metadata
     id="metadata5">
    <rdf:RDF>
      <cc:Work
         rdf:about="">
        <dc:format>image/svg+xml</dc:format>
        <dc:type
           rdf:resource="http://purl.org/dc/dcmitype/StillImage" />
        <dc:title></dc:title>
      </cc:Work>
    </rdf:RDF>
  </metadata>
  <g
     inkscape:label="Layer 1"
     inkscape:groupmode="layer"
     id="layer1"
     transform="translate(44.695605,-274.29118)">
    <g
       id="g837"
       transform="matrix(0.01516763,0,0,0.01516763,-43.594868,273.74892)">
      <path
         style="fill:#d3dae2;stroke-width:0.26458332"
         d="m -58.802069,314.58684 c -4.29954,-0.77795 -9.151749,-4.2074 -11.463044,-8.10183 -1.65754,-2.79289 -2.306317,-5.28672 -2.306317,-8.86518 0,-3.6483 0.415309,-5.47448 1.916017,-8.42505 1.059392,-2.08289 1.967815,-3.00861 56.926324,-58.0102 l 55.84975,-55.89353 -55.850229,-55.89293 C -68.698189,64.38748 -69.596783,63.471786 -70.655892,61.388531 c -1.500351,-2.951179 -1.915538,-4.777283 -1.915538,-8.425054 0,-3.578468 0.648777,-6.072275 2.306317,-8.865171 1.323872,-2.230675 4.489143,-5.215939 6.821808,-6.433856 2.932909,-1.531313 4.571132,-1.913501 8.202083,-1.913501 3.606549,0 5.226513,0.373505 8.202084,1.891098 1.730531,0.882602 5.516136,4.605777 57.680635,56.729395 30.705705,30.681638 56.0061,55.784798 56.223098,55.784798 0.217001,0 25.338527,-24.93358 55.825615,-55.40795 39.93593,-39.919273 55.88575,-55.697719 57.05767,-56.444547 0.89461,-0.570129 2.62102,-1.373401 3.83646,-1.78505 1.95443,-0.661937 2.59215,-0.749052 5.51715,-0.753641 3.00627,-0.0047 3.5148,0.06747 5.58741,0.793168 6.96132,2.437441 11.47739,8.401972 11.81577,15.605613 0.15827,3.369296 -0.36616,5.900536 -1.84476,8.903727 l -1.06987,2.173054 -55.7953,55.829796 c -30.68744,30.70639 -55.795337,56.00595 -55.795337,56.22125 0,0.21529 25.107897,25.51485 55.795337,56.22124 l 55.7953,55.8298 1.06987,2.17305 c 1.4786,3.00319 2.00303,5.53443 1.84476,8.90373 -0.33838,7.20365 -4.85445,13.16818 -11.81577,15.6056 -2.07078,0.72506 -2.58376,0.79806 -5.58741,0.79502 -2.91053,-0.003 -3.56092,-0.0904 -5.42142,-0.72914 -1.16277,-0.39918 -2.82964,-1.15006 -3.70417,-1.66867 -1.23232,-0.73076 -14.09025,-13.43459 -57.15401,-56.46905 -30.560192,-30.53939 -55.741249,-55.52617 -55.957911,-55.52617 -0.21666,0 -25.516777,25.10908 -56.222482,55.79795 l -55.828552,55.79793 -2.249241,1.0981 c -3.559691,1.73786 -7.239403,2.21242 -11.365773,1.46579 z"
         id="path841"
         inkscape:connector-curvature="0" />
      <path
         style="fill:#cdd5df;stroke-width:0.26458332"
         d="m -57.918469,314.2145 c -6.045488,-0.95933 -11.013226,-5.0115 -13.255519,-10.81252 -0.563494,-1.4578 -0.707001,-2.35315 -0.809824,-5.05246 -0.149823,-3.93327 0.126125,-5.41891 1.577579,-8.49328 l 1.061762,-2.24896 55.933395,-55.96145 c 30.763369,-30.7788 55.933396,-56.13818 55.933396,-56.35417 0,-0.216 -25.170027,-25.57538 -55.933396,-56.35418 l -55.933395,-55.961449 -1.061762,-2.248958 c -1.44775,-3.066528 -1.726235,-4.560329 -1.583384,-8.493282 0.102392,-2.819057 0.224372,-3.541281 0.866913,-5.13276 1.476454,-3.656968 3.982344,-6.681893 7.071257,-8.535899 5.224711,-3.135939 12.265909,-3.138741 17.655818,-0.007 1.10282,0.640775 15.508245,14.875503 57.302929,56.623921 30.706372,30.672387 55.94613,55.767967 56.088346,55.767967 0.142219,0 25.441791,-25.16237 56.221274,-55.916375 52.27175,-52.228501 56.08485,-55.978718 57.81477,-56.861685 2.93638,-1.498746 4.60444,-1.889267 8.0698,-1.889267 2.15013,0 3.5084,0.138453 4.6302,0.471977 5.49117,1.632569 9.73773,5.829608 11.6731,11.537014 0.74814,2.206243 0.70126,7.427457 -0.0891,9.921875 -1.33287,4.206692 1.83594,0.886304 -58.20519,60.989151 -30.60215,30.63362 -55.640283,55.87366 -55.640283,56.08898 0,0.21531 25.038133,25.45535 55.640283,56.08897 60.04113,60.10285 56.87232,56.78246 58.20519,60.98915 0.79034,2.49442 0.83722,7.71562 0.0891,9.92188 -1.93537,5.7074 -6.18193,9.90443 -11.6731,11.53702 -1.1218,0.33351 -2.48007,0.47196 -4.6302,0.47196 -3.46536,0 -5.13342,-0.39052 -8.0698,-1.88925 -1.72992,-0.88297 -5.54302,-4.6332 -57.81477,-56.8617 -30.779483,-30.754 -56.079325,-55.91637 -56.221869,-55.91637 -0.142547,0 -25.26324,24.99265 -55.823766,55.53921 -41.358957,41.34007 -55.998967,55.81646 -57.263636,56.62367 -3.127073,1.99591 -8.091029,3.01099 -11.826118,2.4183 z"
         id="path839"
         inkscape:connector-curvature="0" />
    </g>
  </g>
</svg>
