<?xml version="1.0" encoding="UTF-8" standalone="no"?>
<svg
   xmlns:dc="http://purl.org/dc/elements/1.1/"
   xmlns:cc="http://creativecommons.org/ns#"
   xmlns:rdf="http://www.w3.org/1999/02/22-rdf-syntax-ns#"
   xmlns:svg="http://www.w3.org/2000/svg"
   xmlns="http://www.w3.org/2000/svg"
   id="svg8"
   version="1.1"
   viewBox="0 0 6.3500004 6.3500002"
   height="24"
   width="24.000002">
  <defs
     id="defs2" />
  <metadata
     id="metadata5">
    <rdf:RDF>
      <cc:Work
         rdf:about="">
        <dc:format>image/svg+xml</dc:format>
        <dc:type
           rdf:resource="http://purl.org/dc/dcmitype/StillImage" />
        <dc:title></dc:title>
      </cc:Work>
    </rdf:RDF>
  </metadata>
  <g
     transform="translate(38.397866,-247.2267)"
     style="display:inline"
     id="layer1" />
  <g
     transform="translate(38.397866,-247.2267)"
     style="display:inline"
     id="layer2">
    <g
       transform="matrix(0.02325988,0,0,0.02325988,-37.504736,247.67854)"
       id="g907">
      <rect
         style="display:inline;fill:#ffffff;fill-opacity:1;fill-rule:nonzero;stroke:none;stroke-width:0.21166667;stroke-linecap:square;stroke-linejoin:round;stroke-miterlimit:4;stroke-dasharray:none;stroke-opacity:1"
         id="rect880"
         width="123.97619"
         height="51.404762"
         x="-24.946428"
         y="191.16667" />
      <rect
         style="display:inline;fill:#ffffff;fill-opacity:1;fill-rule:nonzero;stroke:none;stroke-width:0.21166667;stroke-linecap:square;stroke-linejoin:round;stroke-miterlimit:4;stroke-dasharray:none;stroke-opacity:1"
         id="rect882"
         width="54.42857"
         height="51.404762"
         x="164.04167"
         y="180.58334" />
      <rect
         style="display:inline;fill:#ffffff;fill-opacity:1;fill-rule:nonzero;stroke:none;stroke-width:0.21166667;stroke-linecap:square;stroke-linejoin:round;stroke-miterlimit:4;stroke-dasharray:none;stroke-opacity:1"
         id="rect888"
         width="113.24165"
         height="75.67083"
         x="-19.52787"
         y="22.726948" />
      <rect
         style="display:inline;fill:#ffffff;fill-opacity:1;fill-rule:nonzero;stroke:none;stroke-width:0.21166667;stroke-linecap:square;stroke-linejoin:round;stroke-miterlimit:4;stroke-dasharray:none;stroke-opacity:1"
         id="rect890"
         width="52.916664"
         height="86.178574"
         x="126.66183"
         y="36.508434"
         transform="rotate(-8.5841006)" />
      <g
         id="g858"
         transform="translate(78.613656,-5.5130806)">
        <path
           style="fill:#cbcfd1;stroke-width:0.26458332"
           d="m -116.93657,258.75871 c -0.0691,-0.18214 -0.0952,-59.50524 -0.058,-131.8291 l 0.0677,-131.4979123 h 75.406248 75.40625 V 127.1942 258.9567 l -75.348232,0.0666 c -60.139916,0.0532 -75.373596,-2.3e-4 -75.473896,-0.26458 z m 42.405335,-19.66189 c 0.838819,-0.2123 2.531713,-0.87889 3.761983,-1.48131 1.774947,-0.86912 2.709918,-1.56519 4.527709,-3.3708 1.928675,-1.91576 2.483905,-2.6729 3.511968,-4.78905 2.065216,-4.25103 2.532247,-8.71343 1.368692,-13.07757 -1.650029,-6.18874 -6.79871,-11.33742 -12.987454,-12.98745 -4.364133,-1.16356 -8.82654,-0.69652 -13.077563,1.36869 -2.121347,1.03059 -2.864784,1.57668 -4.76463,3.49987 -3.219341,3.2589 -4.711062,6.28581 -5.307843,10.77034 -0.508905,3.82419 0.417063,8.25105 2.446972,11.69849 1.128726,1.91694 4.436187,5.2244 6.353125,6.35313 1.802458,1.06131 4.69795,2.09791 6.764136,2.42159 1.890102,0.2961 5.386732,0.10436 7.402905,-0.40593 z M 0.93300856,238.9483 c 3.18964734,-0.84888 5.40450614,-2.15992 7.96902774,-4.71706 1.2477087,-1.24412 2.6379327,-2.91689 3.0893887,-3.71725 2.274671,-4.03266 3.026958,-9.23363 1.951014,-13.48841 -1.422321,-5.62451 -4.7831324,-9.88913 -9.6840545,-12.28834 -12.3781794,-6.05965 -26.6140245,2.76921 -26.5928735,16.49251 0.0048,3.13934 0.508502,5.35335 1.841219,8.09361 3.883578,7.98523 12.7023311,11.94672 21.42627856,9.62494 z M -60.764663,96.436385 l -0.07061,-6.813021 -18.239499,-0.06798 c -14.416498,-0.05374 -18.283754,0.0019 -18.450637,0.264583 -0.116123,0.182912 -0.21296,3.279365 -0.215188,6.881006 l -0.0041,6.548437 h 18.5253 18.525299 z m 75.141667,0 -0.07061,-6.813021 H -3.9498583 -22.206108 l -0.07061,6.813021 -0.07061,6.813025 H -3.9498583 14.447616 Z M -60.835275,75.468156 v -4.630208 h -18.388542 -18.388541 l -0.07297,4.355467 c -0.04013,2.395509 -0.01378,4.509683 0.05854,4.69817 0.106254,0.276889 3.651433,0.329647 18.461511,0.274738 l 18.330003,-0.06796 z m 75.141667,0 V 70.837948 H -3.9498583 -22.206108 l -0.07226,4.698166 -0.07226,4.698167 18.328508,-0.06796 18.328508,-0.06796 z M -60.835275,56.682739 v -4.630208 h -18.388542 -18.388541 l -0.07297,4.355468 c -0.04013,2.395508 -0.01378,4.509682 0.05854,4.698169 0.106254,0.276889 3.651433,0.329647 18.461511,0.274738 l 18.330003,-0.06796 z m 75.141667,0 V 52.052531 H -3.9498583 -22.206108 l -0.07297,4.355468 c -0.04013,2.395508 -0.01379,4.509688 0.05854,4.698179 0.106248,0.276882 3.62709,0.329655 18.3292164,0.274741 l 18.1977086,-0.06797 z m -75.071055,-20.968229 0.07061,-6.813021 h -18.5253 -18.525299 v 6.460652 c 0,3.553359 0.07258,6.649796 0.16129,6.880968 0.145566,0.379341 1.944767,0.413695 18.454688,0.35237 l 18.293397,-0.06795 z m 75.141667,0 0.07061,-6.813021 H -3.9453922 -22.3384 v 6.702777 c 0,3.68653 0.08019,6.782967 0.1782,6.880977 0.09801,0.09801 8.343085,0.147619 18.3223954,0.110244 L 14.306392,42.527531 Z M 80.328691,258.49368 C 80.194227,258.16625 69.822547,199.75638 57.280511,128.69396 37.953019,19.185553 34.532576,-0.56340073 34.842641,-0.85782668 35.176021,-1.1743914 106.87643,-13.961011 108.31817,-13.961011 c 0.35706,0 0.68946,0.233876 0.84609,0.595313 0.30558,0.705171 46.82651,256.534698 46.82651,257.510018 0,0.44285 -0.20095,0.75287 -0.59532,0.9184 -0.50019,0.20995 -74.014069,14.02944 -74.618169,14.02706 -0.11226,0 -0.314126,-0.26868 -0.44859,-0.5961 z m 35.842289,-25.8756 c 3.22031,-0.98901 5.34646,-2.2774 7.8261,-4.74242 3.70024,-3.6784 5.37297,-7.71692 5.37297,-12.97209 0,-3.34447 -0.47449,-5.35226 -2.00088,-8.46666 -1.54123,-3.14469 -4.69102,-6.29009 -7.8909,-7.87993 -3.08451,-1.5325 -5.1018,-2.01186 -8.46667,-2.01186 -3.34447,0 -5.35226,0.4745 -8.46667,2.00088 -1.79853,0.88148 -2.706258,1.55942 -4.532248,3.38498 -1.926619,1.92614 -2.470267,2.67336 -3.480216,4.78339 -1.560663,3.26061 -1.908545,4.7939 -1.888032,8.32149 0.03082,5.30026 1.601938,9.05161 5.387316,12.8633 1.92006,1.93341 2.64629,2.46309 4.77777,3.48474 1.38244,0.66262 3.16838,1.33211 3.96875,1.48774 0.80036,0.15564 1.69333,0.33806 1.98437,0.40538 1.21035,0.27999 5.63156,-0.11326 7.40834,-0.65894 z M 90.638683,98.849065 c 9.677137,-1.696146 17.694657,-3.172648 17.816727,-3.281114 0.19333,-0.171794 -1.73624,-12.11268 -2.11816,-13.107969 -0.0861,-0.224403 -0.36993,-0.322426 -0.71105,-0.245578 -0.31225,0.07035 -8.359358,1.49724 -17.882463,3.170878 -9.523106,1.673637 -17.410181,3.138418 -17.526836,3.255073 -0.169884,0.169884 1.651177,11.709275 2.044528,12.955405 0.05742,0.1819 0.25696,0.33219 0.443431,0.33397 0.186468,0.002 8.256688,-1.38452 17.933823,-3.080665 z M 86.557882,76.009314 c 9.846842,-1.739657 17.952538,-3.212196 18.012648,-3.272314 0.19004,-0.19004 -1.32488,-8.409295 -1.6156,-8.765471 -0.22266,-0.272796 -3.815692,0.284583 -18.126968,2.812007 -9.817094,1.733733 -17.904875,3.207853 -17.972844,3.275825 -0.128095,0.128095 1.265394,8.563523 1.472634,8.914524 0.152895,0.258961 -1.967899,0.603843 18.23013,-2.964571 z m -3.19524,-18.531211 c 9.167812,-1.603814 16.936638,-2.976925 17.264058,-3.05136 0.42867,-0.09745 0.59532,-0.326527 0.59532,-0.818338 0,-0.981006 -1.319012,-8.138025 -1.536941,-8.339521 -0.147895,-0.136742 -12.326451,1.94722 -33.5865,5.747229 -2.370127,0.423635 -2.447396,0.459862 -2.447396,1.147464 0,0.907285 1.240134,7.87533 1.466914,8.242265 0.09403,0.152146 0.48705,0.211752 0.873379,0.132456 0.386329,-0.07929 8.203353,-1.456383 17.371166,-3.060195 z M 80.011765,38.974235 c 9.798685,-1.73278 17.884508,-3.219225 17.968492,-3.303209 0.18959,-0.18959 -2.026904,-12.907367 -2.300245,-13.198338 -0.181234,-0.19292 -35.889385,5.967831 -36.160319,6.238764 -0.06478,0.06478 0.362416,2.842715 0.949328,6.173182 1.253104,7.110786 1.281925,7.246911 1.533557,7.243067 0.106368,-0.0016 8.210502,-1.420686 18.009187,-3.153466 z"
           id="path866" />
        <path
           style="fill:#de605c;stroke-width:0.26458332"
           d="m -116.67199,258.49413 c -0.0691,-0.18214 -0.0952,-59.38618 -0.058,-131.56452 l 0.0676,-131.233329 h 75.141668 75.141667 V 127.1942 258.69211 l -75.083649,0.0666 c -59.928256,0.0532 -75.109016,-2.4e-4 -75.209316,-0.26458 z m 40.947418,-18.82983 c 8.650422,-1.65509 14.821188,-8.80149 15.211906,-17.61698 0.161015,-3.63283 -0.335814,-5.99443 -1.948045,-9.25974 -1.025985,-2.07795 -1.633897,-2.90604 -3.512487,-4.78463 -1.878589,-1.87859 -2.706671,-2.4865 -4.784629,-3.51248 -3.265303,-1.61223 -5.626902,-2.10906 -9.25974,-1.94805 -12.038441,0.53357 -20.341233,11.8178 -17.316082,23.53409 0.928696,3.59681 3.64572,7.69763 6.543212,9.87572 4.594125,3.45346 9.76222,4.72683 15.065865,3.71207 z m 75.0996504,-0.001 c 7.2499723,-1.29342 13.3432096,-7.13228 14.9419046,-14.3181 0.647303,-2.9095 0.43249,-7.18557 -0.506346,-10.07935 -1.461323,-4.50425 -5.0821118,-8.63064 -9.4769706,-10.80035 -3.2210957,-1.59023 -5.6008191,-2.08716 -9.2095664,-1.92313 -10.90444,0.49567 -19.049336,10.1171 -17.702215,20.91133 0.553778,4.43732 2.119736,7.60455 5.39909,10.91995 4.514678,4.5643 10.2848966,6.4081 16.5541034,5.28965 z M -60.50363,66.223921 c 0.05334,-29.763201 -7.94e-4,-37.465457 -0.264584,-37.632928 -0.383087,-0.243229 -36.192822,-0.299704 -36.822504,-0.05807 -0.378897,0.145397 -0.418515,3.697782 -0.418515,37.526735 0,20.551376 0.08017,37.446312 0.178162,37.544302 0.09799,0.098 8.52166,0.1476 18.719271,0.11024 l 18.541108,-0.0679 z m 75.141666,0 c 0.05334,-29.763201 -7.93e-4,-37.465457 -0.264583,-37.632928 -0.476829,-0.302747 -36.112977,-0.274595 -36.680206,0.02898 -0.437338,0.234056 -0.461793,2.285026 -0.445627,37.372396 0.0094,20.41861 0.113927,37.274381 0.232267,37.457271 0.170055,0.26281 4.080317,0.31828 18.6531248,0.26458 l 18.4379632,-0.0679 z m 66.0521,192.292749 C 80.591422,258.35694 70.232347,200.05026 57.669973,128.94625 39.863096,28.157978 34.900227,-0.3997353 35.151174,-0.63312796 35.32821,-0.79778134 51.893796,-3.8200866 71.96359,-7.3493618 c 31.59879,-5.5566502 36.52894,-6.3642772 36.77708,-6.0245902 0.49543,0.678215 47.09955,257.638072 46.7843,257.953322 -0.15293,0.15293 -16.69014,3.35402 -36.74935,7.11354 -20.059223,3.75951 -36.794117,6.89819 -37.188658,6.97481 -0.394539,0.0767 -0.79811,0.009 -0.896826,-0.15105 z m 36.010004,-25.71925 c 2.97121,-0.95789 5.23119,-2.35832 7.5387,-4.67146 2.33113,-2.33683 3.46402,-4.15044 4.58027,-7.33244 0.73615,-2.09849 0.81445,-2.63137 0.8265,-5.62536 0.01,-2.36843 -0.1184,-3.78705 -0.45066,-4.99731 -1.4366,-5.23299 -5.08261,-9.70602 -9.8159,-12.04246 -3.00087,-1.48128 -4.84041,-1.87544 -8.63203,-1.84958 -2.81874,0.0192 -3.61997,0.12528 -5.42396,0.71793 -2.98471,0.98055 -5.23896,2.37986 -7.538698,4.67959 -2.29203,2.29203 -3.690525,4.54032 -4.689271,7.5387 -0.624337,1.87435 -0.705054,2.52558 -0.705054,5.68854 0,3.16296 0.08072,3.8142 0.705054,5.68854 2.169694,6.51374 7.305709,11.15439 14.080049,12.72205 2.46312,0.56999 6.90094,0.32924 9.525,-0.51674 z M 91.564725,99.00876 c 9.313335,-1.632416 17.048485,-3.074528 17.189235,-3.204695 0.27916,-0.25818 0.0261,-1.933657 -1.85267,-12.266117 -0.63505,-3.4925 -1.64036,-9.2075 -2.23402,-12.7 -0.59366,-3.4925 -1.25807,-7.242969 -1.47646,-8.334375 -0.21839,-1.091407 -0.97896,-5.377657 -1.69014,-9.525 -0.71119,-4.147344 -1.659194,-9.564688 -2.106675,-12.038542 -0.447482,-2.473854 -1.35889,-7.653073 -2.025346,-11.509375 -0.666459,-3.856302 -1.322795,-7.125113 -1.458521,-7.264022 -0.238903,-0.244501 -35.910166,5.855023 -36.56252,6.251925 -0.312867,0.190351 -0.173958,1.133046 1.572176,10.669389 0.506261,2.764895 1.497766,8.360833 2.203349,12.435416 0.70558,4.074584 1.708828,9.789584 2.22944,12.7 2.294176,12.82532 3.27691,18.42692 5.987921,34.13125 0.326572,1.891776 0.696182,3.572746 0.821356,3.735496 0.150654,0.19588 0.606542,0.22675 1.348566,0.0913 0.616537,-0.11255 8.740976,-1.54024 18.054309,-3.17265 z"
           id="path864" />
        <path
           style="fill:#db332d;stroke-width:0.26458332"
           d="m -116.40794,258.22814 c -0.0688,-0.18137 -0.0947,-59.26571 -0.0575,-131.29853 l 0.0676,-130.9687457 74.810942,-0.065683 74.810938,-0.065683 V 127.19374 258.55797 h -74.753457 c -59.445613,-3e-5 -74.779083,-0.0676 -74.878583,-0.32983 z m 42.011221,-18.43642 c 9.210636,-2.35569 15.464298,-11.51919 14.231374,-20.85325 -0.622292,-4.71117 -2.133975,-7.7479 -5.564722,-11.17865 -3.430746,-3.43074 -6.467477,-4.94243 -11.178646,-5.56472 -9.334066,-1.23292 -18.497565,5.02074 -20.853251,14.23137 -0.648964,2.53743 -0.687871,6.85722 -0.08383,9.30812 1.668619,6.77046 7.0147,12.22903 13.756442,14.0459 2.549588,0.6871 7.029704,0.69229 9.692637,0.0112 z m 76.267694,-0.39868 c 4.956265,-1.6763 8.892691,-5.03466 11.175717,-9.53456 3.894685,-7.67652 2.218523,-16.79604 -4.1750986,-22.71556 -5.8440162,-5.41066 -14.5161503,-6.51674 -21.7608544,-2.77548 -3.13045,1.61661 -6.529856,5.05252 -8.068247,8.15488 -0.613365,1.23693 -1.297752,2.96334 -1.520859,3.83646 -2.699491,10.56438 3.796548,21.08036 14.5597587,23.56977 2.5755256,0.59569 7.1915734,0.34318 9.7895833,-0.53551 z m -61.940808,-135.7684 c 0.08833,-0.23018 0.1606,-17.182009 0.1606,-37.670726 0,-31.093918 -0.05951,-37.301604 -0.35999,-37.550979 -0.26171,-0.217199 -5.480621,-0.28022 -19.116146,-0.230836 l -18.756156,0.06793 -0.06799,37.570833 c -0.0374,20.663959 -0.01138,37.719668 0.05784,37.901568 0.09905,0.26032 4.148881,0.33073 19.023545,0.33073 16.988157,0 18.913932,-0.0423 19.058302,-0.41852 z m 74.984766,0.10102 c 0.461423,-0.46143 0.461423,-74.838998 0,-75.300421 -0.4593,-0.4593 -37.270282,-0.4593 -37.729583,0 -0.461423,0.461423 -0.461423,74.838991 0,75.300421 0.459301,0.4593 37.270283,0.4593 37.729583,0 z M 80.853582,258.0968 C 80.855963,257.98766 70.599419,199.82304 58.06108,128.84208 45.522738,57.861127 35.32985,-0.27995445 35.410217,-0.36032243 35.65711,-0.60721652 108.22107,-13.35887 108.42002,-13.190324 c 0.27185,0.2303 46.99922,257.297884 46.80689,257.504994 -0.14337,0.1544 -73.434319,13.98057 -74.109377,13.98057 -0.147637,0 -0.266417,-0.0893 -0.263951,-0.19844 z m 35.170128,-24.70148 c 6.50276,-1.73857 11.85469,-7.12974 13.51245,-13.61152 1.11856,-4.37355 0.5353,-9.78153 -1.46565,-13.58934 -5.03692,-9.58527 -16.47764,-13.16501 -26.1306,-8.17612 -3.258494,1.68406 -6.30755,4.81176 -7.949641,8.15466 -1.632911,3.32422 -2.109026,5.29516 -2.109026,8.73057 0,3.43542 0.476115,5.40636 2.109026,8.73058 2.174049,4.42584 6.432861,8.03438 11.375451,9.63855 3.1661,1.0276 7.10366,1.07289 10.65799,0.12262 z M 90.957152,99.529354 C 100.89569,97.774367 109.13578,96.231108 109.26846,96.099891 109.54338,95.828 96.626363,22.083336 96.235327,21.6923 c -0.311081,-0.311081 -36.815744,6.070677 -37.28335,6.517889 -0.267287,0.255627 0.955376,7.625667 6.15207,37.083812 3.56711,20.220628 6.54122,36.913609 6.609133,37.095509 0.06791,0.1819 0.359823,0.33073 0.64869,0.33073 0.288864,0 8.656741,-1.4359 18.595282,-3.190886 z"
           id="path862" />
        <path
           style="fill:#b02520;stroke-width:0.26458332"
           d="M -41.057671,258.38507 C -41.32163,258.27817 -41.3884,231.78853 -41.3884,127.17719 V -3.8967623 l 0.595313,-0.1436714 c 0.327421,-0.079019 17.085468,-0.1110533 37.2401037,-0.071187 l 36.6447913,0.072485 V 127.1942 258.42753 l -36.9093747,0.0457 c -20.3001563,0.0251 -37.0582033,-0.0145 -37.2401043,-0.0882 z M 0.78003442,239.78275 C 6.627543,238.2872 11.730443,233.73631 13.905495,228.07713 c 4.123992,-10.73005 -2.200447,-22.80061 -13.3647471,-25.5074 -2.4419983,-0.59206 -6.8351823,-0.5862 -9.1208146,0.0122 -4.1300853,1.08126 -8.1159033,3.70591 -10.5366923,6.9384 -2.583133,3.44928 -3.705088,6.49493 -3.940024,10.69558 -0.192051,3.43388 0.385812,6.24293 1.950619,9.48209 1.022779,2.11716 1.566952,2.855 3.623659,4.91327 2.731561,2.73365 5.335302,4.27794 8.6985795,5.15916 2.6646532,0.69818 6.861175,0.70359 9.56395992,0.0123 z M 15.100142,66.075448 V 28.240031 H -3.9498583 -22.999858 l -0.068,37.570833 c -0.0374,20.663959 -0.01106,37.720446 0.05851,37.903316 0.100277,0.26353 4.064908,0.3184 19.1179979,0.26458 l 18.9914851,-0.0679 z"
           id="path860" />
      </g>
    </g>
  </g>
</svg>
