<?xml version="1.0" encoding="UTF-8" standalone="no"?>
<svg
   xmlns:dc="http://purl.org/dc/elements/1.1/"
   xmlns:cc="http://creativecommons.org/ns#"
   xmlns:rdf="http://www.w3.org/1999/02/22-rdf-syntax-ns#"
   xmlns:svg="http://www.w3.org/2000/svg"
   xmlns="http://www.w3.org/2000/svg"
   id="svg8"
   version="1.1"
   viewBox="0 0 6.3499993 6.3500001"
   height="24"
   width="23.999998">
  <defs
     id="defs2" />
  <metadata
     id="metadata5">
    <rdf:RDF>
      <cc:Work
         rdf:about="">
        <dc:format>image/svg+xml</dc:format>
        <dc:type
           rdf:resource="http://purl.org/dc/dcmitype/StillImage" />
        <dc:title></dc:title>
      </cc:Work>
    </rdf:RDF>
  </metadata>
  <g
     transform="translate(312.42695,-268.61887)"
     id="layer1">
    <g
       transform="matrix(0.02352941,0,0,0.02352941,-307.83718,268.44349)"
       id="g834">
      <path
         id="path838"
         d="m -79.875034,277.12532 c -2.298859,-0.67564 -4.64648,-3.03962 -5.630537,-5.66973 -0.513535,-1.37255 -0.551376,-2.01552 -0.551376,-9.36886 0,-6.00467 -0.07919,-7.95583 -0.330729,-8.14846 -0.181901,-0.1393 -1.164166,-0.46731 -2.182812,-0.72889 -9.553599,-2.45336 -20.542812,-6.94548 -28.805132,-11.77482 -1.50114,-0.87742 -2.88611,-1.5953 -3.07772,-1.5953 -0.19161,0 -2.97854,2.60105 -6.19318,5.78011 -6.71389,6.63959 -6.94819,6.78759 -10.74516,6.78759 -4.061,0 -3.73868,0.25306 -18.43499,-14.47367 -14.68566,-14.71605 -14.25084,-14.15522 -14.21516,-18.33466 0.0319,-3.73138 0.24468,-4.06329 6.87584,-10.72336 3.11935,-3.13295 5.67154,-5.86035 5.67154,-6.06089 0,-0.20053 -0.71789,-1.59281 -1.5953,-3.09395 -4.7366,-8.10365 -9.10436,-18.67441 -11.51944,-27.87909 -0.4009,-1.52797 -0.8394,-2.92219 -0.97444,-3.09826 -0.18051,-0.23537 -2.43047,-0.34046 -8.49661,-0.39688 l -8.25108,-0.0767 -1.76555,-0.86962 c -2.1196,-1.044 -3.67354,-2.70083 -4.43042,-4.72378 -0.52236,-1.39613 -0.53799,-1.98315 -0.53799,-20.20347 0,-18.22032 0.0156,-18.80735 0.53799,-20.20347 0.75688,-2.02295 2.31082,-3.67978 4.43042,-4.72379 l 1.76555,-0.86962 8.25108,-0.0767 c 6.06614,-0.0564 8.3161,-0.16151 8.49661,-0.39688 0.13504,-0.17607 0.57354,-1.57029 0.97444,-3.09826 2.41508,-9.20468 6.78284,-19.775447 11.51944,-27.879092 0.87741,-1.501137 1.5953,-2.89342 1.5953,-3.093955 0,-0.200538 -2.55219,-2.927938 -5.67154,-6.06089 -6.63116,-6.66007 -6.84398,-6.991977 -6.87584,-10.723356 -0.0358,-4.191968 -0.49155,-3.60602 14.34522,-18.442787 14.83677,-14.836767 14.25082,-14.381003 18.44279,-14.345218 3.73138,0.03186 4.06328,0.244676 10.72335,6.875835 3.13296,3.11935 5.86036,5.671545 6.06089,5.671545 0.20054,0 1.59282,-0.717889 3.09396,-1.595308 8.13738,-4.756317 19.224461,-9.320628 28.275965,-11.640603 1.309688,-0.335685 2.525313,-0.720241 2.701388,-0.85457 0.2354,-0.179586 0.340452,-2.428269 0.396875,-8.495314 l 0.07674,-8.251081 0.869619,-1.765551 c 1.044004,-2.1196 2.700835,-3.6735348 4.723784,-4.4304167 1.396127,-0.5223581 1.98315,-0.5379897 20.203472,-0.5379897 18.22032,0 18.807351,0.015632 20.203478,0.5379897 1.917488,0.7174246 3.582114,2.2347497 4.686643,4.2718897 l 0.906754,1.672412 0.0798,8.379447 c 0.05826,6.11936 0.165312,8.444637 0.396875,8.621149 0.174387,0.132935 1.38864,0.51635 2.698327,0.852035 9.051502,2.319975 20.138575,6.884286 28.2759679,11.640603 1.50114,0.877419 2.88610148,1.595308 3.07771273,1.595308 0.19161125,0 2.97854687,-2.601053 6.19318147,-5.780117 6.7140669,-6.639753 6.9481169,-6.787591 10.7457079,-6.787591 4.060481,0 3.737981,-0.253223 18.434447,14.473671 14.685645,14.716051 14.250829,14.155219 14.215163,18.334662 -0.03186,3.731379 -0.244687,4.063286 -6.875833,10.723356 -3.119358,3.132952 -5.671555,5.860352 -5.671555,6.06089 0,0.200535 0.717894,1.592818 1.595305,3.093955 4.736597,8.103645 9.104365,18.674412 11.519429,27.879092 0.400897,1.52797 0.839417,2.92219 0.97446,3.09826 0.180499,0.23537 2.430463,0.34046 8.496592,0.39688 l 8.251084,0.0767 1.765564,0.86962 c 2.119604,1.04401 3.673528,2.70084 4.430422,4.72379 0.52234,1.39612 0.537977,1.98315 0.537977,20.20347 0,18.22032 -0.01561,18.80734 -0.537977,20.20347 -0.756867,2.02287 -2.310845,3.67977 -4.430342,4.72378 l -1.765459,0.86962 -8.253862,0.08 c -6.018927,0.0583 -8.319241,0.16578 -8.495401,0.39688 -0.132847,0.1743 -0.516202,1.38847 -0.851879,2.69815 -2.319972,9.05151 -6.884299,20.13858 -11.640608,28.27597 -0.877411,1.50114 -1.595305,2.89122 -1.595305,3.08907 0,0.19786 2.601939,2.98479 5.782072,6.19318 6.64038,6.6994 6.786615,6.93066 6.784234,10.72824 -0.0026,4.04282 0.364013,3.57407 -14.234081,18.20237 -14.785843,14.81645 -14.365367,14.48915 -18.568194,14.45335 -3.728111,-0.0318 -4.062412,-0.24586 -10.739199,-6.87762 -3.1395194,-3.11837 -5.867109,-5.66976 -6.06128671,-5.66976 -0.19415125,0 -1.58122939,0.71788 -3.08236939,1.5953 -8.1036579,4.7366 -18.6744239,9.10436 -27.8790929,11.51944 -1.527969,0.4009 -2.922191,0.8394 -3.098271,0.97444 -0.235347,0.1805 -0.340466,2.42907 -0.396875,8.49015 l -0.07673,8.24462 -0.69723,1.48696 c -0.903499,1.92694 -2.235623,3.38117 -3.984942,4.35025 l -1.403245,0.77738 -19.314583,0.0457 c -11.153069,0.0265 -19.665114,-0.0574 -20.144129,-0.19814 z m 25.832671,-88.64946 c 4.899607,-0.54506 11.42701,-2.61902 15.875,-5.044 14.139095,-7.70842 23.10376,-21.56619 24.316584,-37.58911 1.934448,-25.55636 -17.530181,-48.028537 -42.990723,-49.633388 -17.055504,-1.07506 -32.572452,6.530878 -41.957857,20.566458 -14.201181,21.23743 -8.389841,50.05913 12.978624,64.36828 9.288508,6.21994 19.856133,8.65806 31.778372,7.33176 z"
         style="fill:#e6eaeb;stroke-width:0.26458332" />
      <path
         id="path836"
         d="m -68.709839,209.51146 c -12.100804,-1.54977 -24.37588,-6.8051 -34.014131,-14.56247 -13.29893,-10.70369 -22.34988,-27.07942 -24.46628,-44.26642 -0.52604,-4.27198 -0.52604,-12.14798 0,-16.41997 1.83288,-14.88456 8.69317,-28.94145 19.3021,-39.55038 8.652675,-8.652674 19.846921,-14.963741 31.674479,-17.857364 5.897517,-1.442837 8.430569,-1.712505 16.085891,-1.712505 7.655322,0 10.188374,0.269668 16.085899,1.712505 6.867499,1.680141 14.929644,5.160129 20.691184,8.931264 16.7546076,10.966471 27.854196,28.73312 30.2853728,48.47648 0.5260711,4.27199 0.5260711,12.14799 0,16.41997 -1.5205604,12.3483 -6.5583858,24.28468 -14.384655,34.08225 -10.8528118,13.58647 -27.0880678,22.63011 -44.4678168,24.77023 -4.092803,0.50399 -12.767808,0.4918 -16.792043,-0.0236 z m 15.122951,-20.60178 c 5.359669,-0.76195 9.8728,-2.21591 14.890358,-4.79715 12.755854,-6.56211 21.530284,-18.18341 24.64734,-32.64411 0.526256,-2.44141 0.598831,-3.53171 0.598831,-8.99583 0,-5.46412 -0.07257,-6.55442 -0.598831,-8.99583 -3.117056,-14.4607 -11.891486,-26.082 -24.64734,-32.64411 -7.037335,-3.62029 -13.495015,-5.181617 -21.43125,-5.181617 -7.936235,0 -14.39391,1.561327 -21.43125,5.181617 -12.755843,6.56211 -21.53029,18.18341 -24.64733,32.64411 -0.52626,2.44141 -0.59884,3.53171 -0.59884,8.99583 0,7.05429 0.30767,9.10063 2.24174,14.91008 5.524777,16.59507 20.332543,28.98224 37.672464,31.51422 3.26403,0.47661 9.995948,0.48308 13.304108,0.0128 z"
         style="fill:#c6c9c6;stroke-width:0.26458332" />
    </g>
  </g>
</svg>
